<svg width="242" height="209" viewBox="0 0 242 209" fill="none" xmlns="http://www.w3.org/2000/svg">
<g clip-path="url(#clip0_209_432)">
<path d="M17.0566 194.939C13.8611 194.939 10.9976 194.43 8.46607 193.411C5.93455 192.393 3.90104 190.885 2.36552 188.889C0.871509 186.893 0.0830007 184.489 0 181.678H11.3296C11.4956 183.267 12.0559 184.489 13.0104 185.344C13.9649 186.159 15.2099 186.567 16.7454 186.567C18.3224 186.567 19.5674 186.22 20.4804 185.528C21.3934 184.794 21.8499 183.796 21.8499 182.533C21.8499 181.474 21.4764 180.598 20.7294 179.906C20.0239 179.213 19.1317 178.643 18.0527 178.194C17.0152 177.746 15.5211 177.237 13.5706 176.667C10.7486 175.811 8.44532 174.956 6.66081 174.1C4.87629 173.244 3.34078 171.981 2.05427 170.311C0.767761 168.641 0.124502 166.461 0.124502 163.772C0.124502 159.78 1.59777 156.663 4.54429 154.422C7.49082 152.141 11.3296 151 16.0606 151C20.8747 151 24.755 152.141 27.7015 154.422C30.648 156.663 32.225 159.8 32.4325 163.833H20.9162C20.8332 162.448 20.3144 161.369 19.3599 160.594C18.4054 159.78 17.1811 159.372 15.6871 159.372C14.4006 159.372 13.3631 159.719 12.5746 160.411C11.7861 161.063 11.3918 162.02 11.3918 163.283C11.3918 164.669 12.0559 165.748 13.3839 166.522C14.7119 167.296 16.7869 168.131 19.6089 169.028C22.4309 169.965 24.7135 170.861 26.4565 171.717C28.241 172.572 29.7765 173.815 31.063 175.444C32.3495 177.074 32.9928 179.172 32.9928 181.739C32.9928 184.183 32.3495 186.404 31.063 188.4C29.818 190.396 27.992 191.985 25.585 193.167C23.178 194.348 20.3352 194.939 17.0566 194.939ZM44.5239 195C42.6564 195 41.1209 194.47 39.9174 193.411C38.7554 192.311 38.1744 190.967 38.1744 189.378C38.1744 187.748 38.7554 186.383 39.9174 185.283C41.1209 184.183 42.6564 183.633 44.5239 183.633C46.3499 183.633 47.844 184.183 49.006 185.283C50.2095 186.383 50.8112 187.748 50.8112 189.378C50.8112 190.967 50.2095 192.311 49.006 193.411C47.844 194.47 46.3499 195 44.5239 195ZM77.7797 194.939C73.6712 194.939 69.8946 194.002 66.4501 192.128C63.0471 190.254 60.3288 187.646 58.2953 184.306C56.3033 180.924 55.3073 177.135 55.3073 172.939C55.3073 168.743 56.3033 164.974 58.2953 161.633C60.3288 158.293 63.0471 155.685 66.4501 153.811C69.8946 151.937 73.6712 151 77.7797 151C81.8883 151 85.644 151.937 89.0471 153.811C92.4916 155.685 95.1891 158.293 97.1396 161.633C99.1317 164.974 100.128 168.743 100.128 172.939C100.128 177.135 99.1317 180.924 97.1396 184.306C95.1476 187.646 92.4501 190.254 89.0471 192.128C85.644 194.002 81.8883 194.939 77.7797 194.939ZM77.7797 185.406C81.2657 185.406 84.0463 184.265 86.1213 181.983C88.2378 179.702 89.2961 176.687 89.2961 172.939C89.2961 169.15 88.2378 166.135 86.1213 163.894C84.0463 161.613 81.2657 160.472 77.7797 160.472C74.2522 160.472 71.4302 161.593 69.3136 163.833C67.2386 166.074 66.2011 169.109 66.2011 172.939C66.2011 176.728 67.2386 179.763 69.3136 182.044C71.4302 184.285 74.2522 185.406 77.7797 185.406ZM111.03 195C109.162 195 107.627 194.47 106.423 193.411C105.261 192.311 104.68 190.967 104.68 189.378C104.68 187.748 105.261 186.383 106.423 185.283C107.627 184.183 109.162 183.633 111.03 183.633C112.856 183.633 114.35 184.183 115.512 185.283C116.715 186.383 117.317 187.748 117.317 189.378C117.317 190.967 116.715 192.311 115.512 193.411C114.35 194.47 112.856 195 111.03 195ZM145.904 194.511L136.816 178.317H134.263V194.511H123.618V151.611H141.484C144.929 151.611 147.855 152.202 150.262 153.383C152.71 154.565 154.536 156.194 155.74 158.272C156.943 160.309 157.545 162.591 157.545 165.117C157.545 167.969 156.715 170.515 155.055 172.756C153.436 174.996 151.029 176.585 147.834 177.522L157.918 194.511H145.904ZM134.263 170.922H140.862C142.812 170.922 144.265 170.454 145.219 169.517C146.215 168.58 146.713 167.256 146.713 165.544C146.713 163.915 146.215 162.631 145.219 161.694C144.265 160.757 142.812 160.289 140.862 160.289H134.263V170.922ZM169.207 195C167.34 195 165.804 194.47 164.601 193.411C163.439 192.311 162.858 190.967 162.858 189.378C162.858 187.748 163.439 186.383 164.601 185.283C165.804 184.183 167.34 183.633 169.207 183.633C171.033 183.633 172.527 184.183 173.689 185.283C174.893 186.383 175.495 187.748 175.495 189.378C175.495 190.967 174.893 192.311 173.689 193.411C172.527 194.47 171.033 195 169.207 195ZM202.463 194.939C198.355 194.939 194.578 194.002 191.134 192.128C187.73 190.254 185.012 187.646 182.979 184.306C180.987 180.924 179.991 177.135 179.991 172.939C179.991 168.743 180.987 164.974 182.979 161.633C185.012 158.293 187.73 155.685 191.134 153.811C194.578 151.937 198.355 151 202.463 151C206.572 151 210.327 151.937 213.73 153.811C217.175 155.685 219.873 158.293 221.823 161.633C223.815 164.974 224.811 168.743 224.811 172.939C224.811 177.135 223.815 180.924 221.823 184.306C219.831 187.646 217.134 190.254 213.73 192.128C210.327 194.002 206.572 194.939 202.463 194.939ZM202.463 185.406C205.949 185.406 208.73 184.265 210.805 181.983C212.921 179.702 213.98 176.687 213.98 172.939C213.98 169.15 212.921 166.135 210.805 163.894C208.73 161.613 205.949 160.472 202.463 160.472C198.936 160.472 196.114 161.593 193.997 163.833C191.922 166.074 190.885 169.109 190.885 172.939C190.885 176.728 191.922 179.763 193.997 182.044C196.114 184.285 198.936 185.406 202.463 185.406ZM235.713 195C233.845 195 232.31 194.47 231.106 193.411C229.944 192.311 229.363 190.967 229.363 189.378C229.363 187.748 229.944 186.383 231.106 185.283C232.31 184.183 233.845 183.633 235.713 183.633C237.539 183.633 239.033 184.183 240.195 185.283C241.398 186.383 242 187.748 242 189.378C242 190.967 241.398 192.311 240.195 193.411C239.033 194.47 237.539 195 235.713 195Z" fill="#061C43"/>
<path d="M111.526 -3.58984C125.249 23.8748 105.766 37.8197 110.474 55.2539C115.347 73.3002 131.207 74.7845 141.59 70.4639C150.707 66.6697 154.755 55.242 151.757 43.5605C159.585 54.3776 165.317 67.6677 167.001 89.1494C167.001 112.221 146.182 130.924 120.501 130.924C94.8197 130.924 74.0003 112.221 74 89.1494C74 51.3897 124.636 20.3191 110.624 -5C110.924 -4.52445 111.225 -4.0548 111.526 -3.58984Z" fill="#061C43"/>
</g>
<defs>
<clipPath id="clip0_209_432">
<rect width="242" height="209" fill="white"/>
</clipPath>
</defs>
</svg>
