<svg width="218" height="90" viewBox="0 0 218 90" fill="none" xmlns="http://www.w3.org/2000/svg">
<path d="M18.4951 71.07C18.0284 71.07 17.6084 70.99 17.2351 70.83C16.8617 70.6633 16.5684 70.43 16.3551 70.13C16.1417 69.83 16.0351 69.48 16.0351 69.08H17.2551C17.2817 69.38 17.3984 69.6267 17.6051 69.82C17.8184 70.0133 18.1151 70.11 18.4951 70.11C18.8884 70.11 19.1951 70.0167 19.4151 69.83C19.6351 69.6367 19.7451 69.39 19.7451 69.09C19.7451 68.8567 19.6751 68.6667 19.5351 68.52C19.4017 68.3733 19.2317 68.26 19.0251 68.18C18.8251 68.1 18.5451 68.0133 18.1851 67.92C17.7317 67.8 17.3617 67.68 17.0751 67.56C16.7951 67.4333 16.5551 67.24 16.3551 66.98C16.1551 66.72 16.0551 66.3733 16.0551 65.94C16.0551 65.54 16.1551 65.19 16.3551 64.89C16.5551 64.59 16.8351 64.36 17.1951 64.2C17.5551 64.04 17.9717 63.96 18.4451 63.96C19.1184 63.96 19.6684 64.13 20.0951 64.47C20.5284 64.8033 20.7684 65.2633 20.8151 65.85H19.5551C19.5351 65.5967 19.4151 65.38 19.1951 65.2C18.9751 65.02 18.6851 64.93 18.3251 64.93C17.9984 64.93 17.7317 65.0133 17.5251 65.18C17.3184 65.3467 17.2151 65.5867 17.2151 65.9C17.2151 66.1133 17.2784 66.29 17.4051 66.43C17.5384 66.5633 17.7051 66.67 17.9051 66.75C18.1051 66.83 18.3784 66.9167 18.7251 67.01C19.1851 67.1367 19.5584 67.2633 19.8451 67.39C20.1384 67.5167 20.3851 67.7133 20.5851 67.98C20.7917 68.24 20.8951 68.59 20.8951 69.03C20.8951 69.3833 20.7984 69.7167 20.6051 70.03C20.4184 70.3433 20.1417 70.5967 19.7751 70.79C19.4151 70.9767 18.9884 71.07 18.4951 71.07ZM22.8202 64.76C22.6136 64.76 22.4402 64.69 22.3002 64.55C22.1602 64.41 22.0902 64.2367 22.0902 64.03C22.0902 63.8233 22.1602 63.65 22.3002 63.51C22.4402 63.37 22.6136 63.3 22.8202 63.3C23.0202 63.3 23.1902 63.37 23.3302 63.51C23.4702 63.65 23.5402 63.8233 23.5402 64.03C23.5402 64.2367 23.4702 64.41 23.3302 64.55C23.1902 64.69 23.0202 64.76 22.8202 64.76ZM23.3802 65.49V71H22.2402V65.49H23.3802ZM26.877 71.09C26.4436 71.09 26.0536 71.0133 25.707 70.86C25.367 70.7 25.097 70.4867 24.897 70.22C24.697 69.9467 24.5903 69.6433 24.577 69.31H25.757C25.777 69.5433 25.887 69.74 26.087 69.9C26.2936 70.0533 26.5503 70.13 26.857 70.13C27.177 70.13 27.4236 70.07 27.597 69.95C27.777 69.8233 27.867 69.6633 27.867 69.47C27.867 69.2633 27.767 69.11 27.567 69.01C27.3736 68.91 27.0636 68.8 26.637 68.68C26.2236 68.5667 25.887 68.4567 25.627 68.35C25.367 68.2433 25.1403 68.08 24.947 67.86C24.7603 67.64 24.667 67.35 24.667 66.99C24.667 66.6967 24.7536 66.43 24.927 66.19C25.1003 65.9433 25.347 65.75 25.667 65.61C25.9936 65.47 26.367 65.4 26.787 65.4C27.4136 65.4 27.917 65.56 28.297 65.88C28.6836 66.1933 28.8903 66.6233 28.917 67.17H27.777C27.757 66.9233 27.657 66.7267 27.477 66.58C27.297 66.4333 27.0536 66.36 26.747 66.36C26.447 66.36 26.217 66.4167 26.057 66.53C25.897 66.6433 25.817 66.7933 25.817 66.98C25.817 67.1267 25.8703 67.25 25.977 67.35C26.0836 67.45 26.2136 67.53 26.367 67.59C26.5203 67.6433 26.747 67.7133 27.047 67.8C27.447 67.9067 27.7736 68.0167 28.027 68.13C28.287 68.2367 28.5103 68.3967 28.697 68.61C28.8836 68.8233 28.9803 69.1067 28.987 69.46C28.987 69.7733 28.9003 70.0533 28.727 70.3C28.5536 70.5467 28.307 70.74 27.987 70.88C27.6736 71.02 27.3036 71.09 26.877 71.09ZM31.5488 66.42V69.47C31.5488 69.6767 31.5954 69.8267 31.6888 69.92C31.7888 70.0067 31.9554 70.05 32.1888 70.05H32.8888V71H31.9888C31.4754 71 31.0821 70.88 30.8088 70.64C30.5354 70.4 30.3988 70.01 30.3988 69.47V66.42H29.7488V65.49H30.3988V64.12H31.5488V65.49H32.8888V66.42H31.5488ZM38.9895 68.11C38.9895 68.3167 38.9761 68.5033 38.9495 68.67H34.7395C34.7728 69.11 34.9361 69.4633 35.2295 69.73C35.5228 69.9967 35.8828 70.13 36.3095 70.13C36.9228 70.13 37.3561 69.8733 37.6095 69.36H38.8395C38.6728 69.8667 38.3695 70.2833 37.9295 70.61C37.4961 70.93 36.9561 71.09 36.3095 71.09C35.7828 71.09 35.3095 70.9733 34.8895 70.74C34.4761 70.5 34.1495 70.1667 33.9095 69.74C33.6761 69.3067 33.5595 68.8067 33.5595 68.24C33.5595 67.6733 33.6728 67.1767 33.8995 66.75C34.1328 66.3167 34.4561 65.9833 34.8695 65.75C35.2895 65.5167 35.7695 65.4 36.3095 65.4C36.8295 65.4 37.2928 65.5133 37.6995 65.74C38.1061 65.9667 38.4228 66.2867 38.6495 66.7C38.8761 67.1067 38.9895 67.5767 38.9895 68.11ZM37.7995 67.75C37.7928 67.33 37.6428 66.9933 37.3495 66.74C37.0561 66.4867 36.6928 66.36 36.2595 66.36C35.8661 66.36 35.5295 66.4867 35.2495 66.74C34.9695 66.9867 34.8028 67.3233 34.7495 67.75H37.7995ZM46.7813 65.4C47.2147 65.4 47.6013 65.49 47.9413 65.67C48.288 65.85 48.558 66.1167 48.7513 66.47C48.9513 66.8233 49.0513 67.25 49.0513 67.75V71H47.9213V67.92C47.9213 67.4267 47.798 67.05 47.5513 66.79C47.3047 66.5233 46.968 66.39 46.5413 66.39C46.1147 66.39 45.7747 66.5233 45.5213 66.79C45.2747 67.05 45.1513 67.4267 45.1513 67.92V71H44.0213V67.92C44.0213 67.4267 43.898 67.05 43.6513 66.79C43.4047 66.5233 43.068 66.39 42.6413 66.39C42.2147 66.39 41.8747 66.5233 41.6213 66.79C41.3747 67.05 41.2513 67.4267 41.2513 67.92V71H40.1113V65.49H41.2513V66.12C41.438 65.8933 41.6747 65.7167 41.9613 65.59C42.248 65.4633 42.5547 65.4 42.8813 65.4C43.3213 65.4 43.7147 65.4933 44.0613 65.68C44.408 65.8667 44.6747 66.1367 44.8613 66.49C45.028 66.1567 45.288 65.8933 45.6413 65.7C45.9947 65.5 46.3747 65.4 46.7813 65.4ZM50.122 68.22C50.122 67.6667 50.2353 67.1767 50.462 66.75C50.6953 66.3233 51.0086 65.9933 51.402 65.76C51.802 65.52 52.242 65.4 52.722 65.4C53.1553 65.4 53.532 65.4867 53.852 65.66C54.1786 65.8267 54.4386 66.0367 54.632 66.29V65.49H55.782V71H54.632V70.18C54.4386 70.44 54.1753 70.6567 53.842 70.83C53.5086 71.0033 53.1286 71.09 52.702 71.09C52.2286 71.09 51.7953 70.97 51.402 70.73C51.0086 70.4833 50.6953 70.1433 50.462 69.71C50.2353 69.27 50.122 68.7733 50.122 68.22ZM54.632 68.24C54.632 67.86 54.552 67.53 54.392 67.25C54.2386 66.97 54.0353 66.7567 53.782 66.61C53.5286 66.4633 53.2553 66.39 52.962 66.39C52.6686 66.39 52.3953 66.4633 52.142 66.61C51.8886 66.75 51.682 66.96 51.522 67.24C51.3686 67.5133 51.292 67.84 51.292 68.22C51.292 68.6 51.3686 68.9333 51.522 69.22C51.682 69.5067 51.8886 69.7267 52.142 69.88C52.402 70.0267 52.6753 70.1 52.962 70.1C53.2553 70.1 53.5286 70.0267 53.782 69.88C54.0353 69.7333 54.2386 69.52 54.392 69.24C54.552 68.9533 54.632 68.62 54.632 68.24ZM63.047 71.07C62.4003 71.07 61.8036 70.92 61.257 70.62C60.717 70.3133 60.287 69.89 59.967 69.35C59.6536 68.8033 59.497 68.19 59.497 67.51C59.497 66.83 59.6536 66.22 59.967 65.68C60.287 65.14 60.717 64.72 61.257 64.42C61.8036 64.1133 62.4003 63.96 63.047 63.96C63.7003 63.96 64.297 64.1133 64.837 64.42C65.3836 64.72 65.8136 65.14 66.127 65.68C66.4403 66.22 66.597 66.83 66.597 67.51C66.597 68.19 66.4403 68.8033 66.127 69.35C65.8136 69.89 65.3836 70.3133 64.837 70.62C64.297 70.92 63.7003 71.07 63.047 71.07ZM63.047 70.08C63.507 70.08 63.917 69.9767 64.277 69.77C64.637 69.5567 64.917 69.2567 65.117 68.87C65.3236 68.4767 65.427 68.0233 65.427 67.51C65.427 66.9967 65.3236 66.5467 65.117 66.16C64.917 65.7733 64.637 65.4767 64.277 65.27C63.917 65.0633 63.507 64.96 63.047 64.96C62.587 64.96 62.177 65.0633 61.817 65.27C61.457 65.4767 61.1736 65.7733 60.967 66.16C60.767 66.5467 60.667 66.9967 60.667 67.51C60.667 68.0233 60.767 68.4767 60.967 68.87C61.1736 69.2567 61.457 69.5567 61.817 69.77C62.177 69.9767 62.587 70.08 63.047 70.08ZM68.8588 66.3C69.0521 66.0467 69.3154 65.8333 69.6488 65.66C69.9821 65.4867 70.3588 65.4 70.7788 65.4C71.2588 65.4 71.6954 65.52 72.0888 65.76C72.4888 65.9933 72.8021 66.3233 73.0288 66.75C73.2554 67.1767 73.3688 67.6667 73.3688 68.22C73.3688 68.7733 73.2554 69.27 73.0288 69.71C72.8021 70.1433 72.4888 70.4833 72.0888 70.73C71.6954 70.97 71.2588 71.09 70.7788 71.09C70.3588 71.09 69.9854 71.0067 69.6588 70.84C69.3321 70.6667 69.0654 70.4533 68.8588 70.2V73.62H67.7188V65.49H68.8588V66.3ZM72.2088 68.22C72.2088 67.84 72.1288 67.5133 71.9688 67.24C71.8154 66.96 71.6088 66.75 71.3488 66.61C71.0954 66.4633 70.8221 66.39 70.5288 66.39C70.2421 66.39 69.9688 66.4633 69.7088 66.61C69.4554 66.7567 69.2488 66.97 69.0888 67.25C68.9354 67.53 68.8588 67.86 68.8588 68.24C68.8588 68.62 68.9354 68.9533 69.0888 69.24C69.2488 69.52 69.4554 69.7333 69.7088 69.88C69.9688 70.0267 70.2421 70.1 70.5288 70.1C70.8221 70.1 71.0954 70.0267 71.3488 69.88C71.6088 69.7267 71.8154 69.5067 71.9688 69.22C72.1288 68.9333 72.2088 68.6 72.2088 68.22ZM79.5461 68.11C79.5461 68.3167 79.5328 68.5033 79.5061 68.67H75.2961C75.3294 69.11 75.4928 69.4633 75.7861 69.73C76.0794 69.9967 76.4394 70.13 76.8661 70.13C77.4794 70.13 77.9128 69.8733 78.1661 69.36H79.3961C79.2294 69.8667 78.9261 70.2833 78.4861 70.61C78.0528 70.93 77.5128 71.09 76.8661 71.09C76.3394 71.09 75.8661 70.9733 75.4461 70.74C75.0328 70.5 74.7061 70.1667 74.4661 69.74C74.2328 69.3067 74.1161 68.8067 74.1161 68.24C74.1161 67.6733 74.2294 67.1767 74.4561 66.75C74.6894 66.3167 75.0128 65.9833 75.4261 65.75C75.8461 65.5167 76.3261 65.4 76.8661 65.4C77.3861 65.4 77.8494 65.5133 78.2561 65.74C78.6628 65.9667 78.9794 66.2867 79.2061 66.7C79.4328 67.1067 79.5461 67.5767 79.5461 68.11ZM78.3561 67.75C78.3494 67.33 78.1994 66.9933 77.9061 66.74C77.6128 66.4867 77.2494 66.36 76.8161 66.36C76.4228 66.36 76.0861 66.4867 75.8061 66.74C75.5261 66.9867 75.3594 67.3233 75.3061 67.75H78.3561ZM81.808 66.29C81.9746 66.01 82.1946 65.7933 82.468 65.64C82.748 65.48 83.078 65.4 83.458 65.4V66.58H83.168C82.7213 66.58 82.3813 66.6933 82.148 66.92C81.9213 67.1467 81.808 67.54 81.808 68.1V71H80.668V65.49H81.808V66.29ZM84.1259 68.22C84.1259 67.6667 84.2392 67.1767 84.4659 66.75C84.6992 66.3233 85.0125 65.9933 85.4059 65.76C85.8059 65.52 86.2459 65.4 86.7259 65.4C87.1592 65.4 87.5359 65.4867 87.8559 65.66C88.1825 65.8267 88.4425 66.0367 88.6359 66.29V65.49H89.7859V71H88.6359V70.18C88.4425 70.44 88.1792 70.6567 87.8459 70.83C87.5125 71.0033 87.1325 71.09 86.7059 71.09C86.2325 71.09 85.7992 70.97 85.4059 70.73C85.0125 70.4833 84.6992 70.1433 84.4659 69.71C84.2392 69.27 84.1259 68.7733 84.1259 68.22ZM88.6359 68.24C88.6359 67.86 88.5559 67.53 88.3959 67.25C88.2425 66.97 88.0392 66.7567 87.7859 66.61C87.5325 66.4633 87.2592 66.39 86.9659 66.39C86.6725 66.39 86.3992 66.4633 86.1459 66.61C85.8925 66.75 85.6859 66.96 85.5259 67.24C85.3725 67.5133 85.2959 67.84 85.2959 68.22C85.2959 68.6 85.3725 68.9333 85.5259 69.22C85.6859 69.5067 85.8925 69.7267 86.1459 69.88C86.4059 70.0267 86.6792 70.1 86.9659 70.1C87.2592 70.1 87.5325 70.0267 87.7859 69.88C88.0392 69.7333 88.2425 69.52 88.3959 69.24C88.5559 68.9533 88.6359 68.62 88.6359 68.24ZM90.9032 68.24C90.9032 67.6733 91.0165 67.1767 91.2432 66.75C91.4765 66.3167 91.7965 65.9833 92.2032 65.75C92.6099 65.5167 93.0765 65.4 93.6032 65.4C94.2699 65.4 94.8199 65.56 95.2532 65.88C95.6932 66.1933 95.9899 66.6433 96.1432 67.23H94.9132C94.8132 66.9567 94.6532 66.7433 94.4332 66.59C94.2132 66.4367 93.9365 66.36 93.6032 66.36C93.1365 66.36 92.7632 66.5267 92.4832 66.86C92.2099 67.1867 92.0732 67.6467 92.0732 68.24C92.0732 68.8333 92.2099 69.2967 92.4832 69.63C92.7632 69.9633 93.1365 70.13 93.6032 70.13C94.2632 70.13 94.6999 69.84 94.9132 69.26H96.1432C95.9832 69.82 95.6832 70.2667 95.2432 70.6C94.8032 70.9267 94.2565 71.09 93.6032 71.09C93.0765 71.09 92.6099 70.9733 92.2032 70.74C91.7965 70.5 91.4765 70.1667 91.2432 69.74C91.0165 69.3067 90.9032 68.8067 90.9032 68.24ZM97.8593 64.76C97.6526 64.76 97.4793 64.69 97.3393 64.55C97.1993 64.41 97.1293 64.2367 97.1293 64.03C97.1293 63.8233 97.1993 63.65 97.3393 63.51C97.4793 63.37 97.6526 63.3 97.8593 63.3C98.0593 63.3 98.2293 63.37 98.3693 63.51C98.5093 63.65 98.5793 63.8233 98.5793 64.03C98.5793 64.2367 98.5093 64.41 98.3693 64.55C98.2293 64.69 98.0593 64.76 97.8593 64.76ZM98.4193 65.49V71H97.2793V65.49H98.4193ZM102.306 71.09C101.786 71.09 101.316 70.9733 100.896 70.74C100.476 70.5 100.146 70.1667 99.906 69.74C99.666 69.3067 99.546 68.8067 99.546 68.24C99.546 67.68 99.6693 67.1833 99.916 66.75C100.163 66.3167 100.499 65.9833 100.926 65.75C101.353 65.5167 101.829 65.4 102.356 65.4C102.883 65.4 103.359 65.5167 103.786 65.75C104.213 65.9833 104.549 66.3167 104.796 66.75C105.043 67.1833 105.166 67.68 105.166 68.24C105.166 68.8 105.039 69.2967 104.786 69.73C104.533 70.1633 104.186 70.5 103.746 70.74C103.313 70.9733 102.833 71.09 102.306 71.09ZM102.306 70.1C102.599 70.1 102.873 70.03 103.126 69.89C103.386 69.75 103.596 69.54 103.756 69.26C103.916 68.98 103.996 68.64 103.996 68.24C103.996 67.84 103.919 67.5033 103.766 67.23C103.613 66.95 103.409 66.74 103.156 66.6C102.903 66.46 102.629 66.39 102.336 66.39C102.043 66.39 101.769 66.46 101.516 66.6C101.269 66.74 101.073 66.95 100.926 67.23C100.779 67.5033 100.706 67.84 100.706 68.24C100.706 68.8333 100.856 69.2933 101.156 69.62C101.463 69.94 101.846 70.1 102.306 70.1ZM109.073 65.4C109.506 65.4 109.893 65.49 110.233 65.67C110.58 65.85 110.85 66.1167 111.043 66.47C111.236 66.8233 111.333 67.25 111.333 67.75V71H110.203V67.92C110.203 67.4267 110.08 67.05 109.833 66.79C109.586 66.5233 109.25 66.39 108.823 66.39C108.396 66.39 108.056 66.5233 107.803 66.79C107.556 67.05 107.433 67.4267 107.433 67.92V71H106.293V65.49H107.433V66.12C107.62 65.8933 107.856 65.7167 108.143 65.59C108.436 65.4633 108.746 65.4 109.073 65.4ZM112.407 68.22C112.407 67.6667 112.52 67.1767 112.747 66.75C112.98 66.3233 113.294 65.9933 113.687 65.76C114.087 65.52 114.527 65.4 115.007 65.4C115.44 65.4 115.817 65.4867 116.137 65.66C116.464 65.8267 116.724 66.0367 116.917 66.29V65.49H118.067V71H116.917V70.18C116.724 70.44 116.46 70.6567 116.127 70.83C115.794 71.0033 115.414 71.09 114.987 71.09C114.514 71.09 114.08 70.97 113.687 70.73C113.294 70.4833 112.98 70.1433 112.747 69.71C112.52 69.27 112.407 68.7733 112.407 68.22ZM116.917 68.24C116.917 67.86 116.837 67.53 116.677 67.25C116.524 66.97 116.32 66.7567 116.067 66.61C115.814 66.4633 115.54 66.39 115.247 66.39C114.954 66.39 114.68 66.4633 114.427 66.61C114.174 66.75 113.967 66.96 113.807 67.24C113.654 67.5133 113.577 67.84 113.577 68.22C113.577 68.6 113.654 68.9333 113.807 69.22C113.967 69.5067 114.174 69.7267 114.427 69.88C114.687 70.0267 114.96 70.1 115.247 70.1C115.54 70.1 115.814 70.0267 116.067 69.88C116.32 69.7333 116.524 69.52 116.677 69.24C116.837 68.9533 116.917 68.62 116.917 68.24ZM120.704 63.6V71H119.564V63.6H120.704ZM125.939 66.3C126.132 66.0467 126.395 65.8333 126.729 65.66C127.062 65.4867 127.439 65.4 127.859 65.4C128.339 65.4 128.775 65.52 129.169 65.76C129.569 65.9933 129.882 66.3233 130.109 66.75C130.335 67.1767 130.449 67.6667 130.449 68.22C130.449 68.7733 130.335 69.27 130.109 69.71C129.882 70.1433 129.569 70.4833 129.169 70.73C128.775 70.97 128.339 71.09 127.859 71.09C127.439 71.09 127.065 71.0067 126.739 70.84C126.412 70.6667 126.145 70.4533 125.939 70.2V73.62H124.799V65.49H125.939V66.3ZM129.289 68.22C129.289 67.84 129.209 67.5133 129.049 67.24C128.895 66.96 128.689 66.75 128.429 66.61C128.175 66.4633 127.902 66.39 127.609 66.39C127.322 66.39 127.049 66.4633 126.789 66.61C126.535 66.7567 126.329 66.97 126.169 67.25C126.015 67.53 125.939 67.86 125.939 68.24C125.939 68.62 126.015 68.9533 126.169 69.24C126.329 69.52 126.535 69.7333 126.789 69.88C127.049 70.0267 127.322 70.1 127.609 70.1C127.902 70.1 128.175 70.0267 128.429 69.88C128.689 69.7267 128.895 69.5067 129.049 69.22C129.209 68.9333 129.289 68.6 129.289 68.22ZM131.196 68.22C131.196 67.6667 131.31 67.1767 131.536 66.75C131.77 66.3233 132.083 65.9933 132.476 65.76C132.876 65.52 133.316 65.4 133.796 65.4C134.23 65.4 134.606 65.4867 134.926 65.66C135.253 65.8267 135.513 66.0367 135.706 66.29V65.49H136.856V71H135.706V70.18C135.513 70.44 135.25 70.6567 134.916 70.83C134.583 71.0033 134.203 71.09 133.776 71.09C133.303 71.09 132.87 70.97 132.476 70.73C132.083 70.4833 131.77 70.1433 131.536 69.71C131.31 69.27 131.196 68.7733 131.196 68.22ZM135.706 68.24C135.706 67.86 135.626 67.53 135.466 67.25C135.313 66.97 135.11 66.7567 134.856 66.61C134.603 66.4633 134.33 66.39 134.036 66.39C133.743 66.39 133.47 66.4633 133.216 66.61C132.963 66.75 132.756 66.96 132.596 67.24C132.443 67.5133 132.366 67.84 132.366 68.22C132.366 68.6 132.443 68.9333 132.596 69.22C132.756 69.5067 132.963 69.7267 133.216 69.88C133.476 70.0267 133.75 70.1 134.036 70.1C134.33 70.1 134.603 70.0267 134.856 69.88C135.11 69.7333 135.313 69.52 135.466 69.24C135.626 68.9533 135.706 68.62 135.706 68.24ZM139.494 66.29C139.66 66.01 139.88 65.7933 140.154 65.64C140.434 65.48 140.764 65.4 141.144 65.4V66.58H140.854C140.407 66.58 140.067 66.6933 139.834 66.92C139.607 67.1467 139.494 67.54 139.494 68.1V71H138.354V65.49H139.494V66.29ZM141.811 68.22C141.811 67.6667 141.925 67.1767 142.151 66.75C142.385 66.3233 142.698 65.9933 143.091 65.76C143.491 65.52 143.931 65.4 144.411 65.4C144.845 65.4 145.221 65.4867 145.541 65.66C145.868 65.8267 146.128 66.0367 146.321 66.29V65.49H147.471V71H146.321V70.18C146.128 70.44 145.865 70.6567 145.531 70.83C145.198 71.0033 144.818 71.09 144.391 71.09C143.918 71.09 143.485 70.97 143.091 70.73C142.698 70.4833 142.385 70.1433 142.151 69.71C141.925 69.27 141.811 68.7733 141.811 68.22ZM146.321 68.24C146.321 67.86 146.241 67.53 146.081 67.25C145.928 66.97 145.725 66.7567 145.471 66.61C145.218 66.4633 144.945 66.39 144.651 66.39C144.358 66.39 144.085 66.4633 143.831 66.61C143.578 66.75 143.371 66.96 143.211 67.24C143.058 67.5133 142.981 67.84 142.981 68.22C142.981 68.6 143.058 68.9333 143.211 69.22C143.371 69.5067 143.578 69.7267 143.831 69.88C144.091 70.0267 144.365 70.1 144.651 70.1C144.945 70.1 145.218 70.0267 145.471 69.88C145.725 69.7333 145.928 69.52 146.081 69.24C146.241 68.9533 146.321 68.62 146.321 68.24ZM155.176 71L153.576 68.22H152.706V71H151.566V64.05H153.966C154.5 64.05 154.95 64.1433 155.316 64.33C155.69 64.5167 155.966 64.7667 156.146 65.08C156.333 65.3933 156.426 65.7433 156.426 66.13C156.426 66.5833 156.293 66.9967 156.026 67.37C155.766 67.7367 155.363 67.9867 154.816 68.12L156.536 71H155.176ZM152.706 67.31H153.966C154.393 67.31 154.713 67.2033 154.926 66.99C155.146 66.7767 155.256 66.49 155.256 66.13C155.256 65.77 155.15 65.49 154.936 65.29C154.723 65.0833 154.4 64.98 153.966 64.98H152.706V67.31ZM162.935 68.11C162.935 68.3167 162.921 68.5033 162.895 68.67H158.685C158.718 69.11 158.881 69.4633 159.175 69.73C159.468 69.9967 159.828 70.13 160.255 70.13C160.868 70.13 161.301 69.8733 161.555 69.36H162.785C162.618 69.8667 162.315 70.2833 161.875 70.61C161.441 70.93 160.901 71.09 160.255 71.09C159.728 71.09 159.255 70.9733 158.835 70.74C158.421 70.5 158.095 70.1667 157.855 69.74C157.621 69.3067 157.505 68.8067 157.505 68.24C157.505 67.6733 157.618 67.1767 157.845 66.75C158.078 66.3167 158.401 65.9833 158.815 65.75C159.235 65.5167 159.715 65.4 160.255 65.4C160.775 65.4 161.238 65.5133 161.645 65.74C162.051 65.9667 162.368 66.2867 162.595 66.7C162.821 67.1067 162.935 67.5767 162.935 68.11ZM161.745 67.75C161.738 67.33 161.588 66.9933 161.295 66.74C161.001 66.4867 160.638 66.36 160.205 66.36C159.811 66.36 159.475 66.4867 159.195 66.74C158.915 66.9867 158.748 67.3233 158.695 67.75H161.745ZM166.277 65.4C166.703 65.4 167.08 65.4867 167.407 65.66C167.74 65.8267 168 66.0367 168.187 66.29V65.49H169.337V71.09C169.337 71.5967 169.23 72.0467 169.017 72.44C168.803 72.84 168.493 73.1533 168.087 73.38C167.687 73.6067 167.207 73.72 166.647 73.72C165.9 73.72 165.28 73.5433 164.787 73.19C164.293 72.8433 164.013 72.37 163.947 71.77H165.077C165.163 72.0567 165.347 72.2867 165.627 72.46C165.913 72.64 166.253 72.73 166.647 72.73C167.107 72.73 167.477 72.59 167.757 72.31C168.043 72.03 168.187 71.6233 168.187 71.09V70.17C167.993 70.43 167.73 70.65 167.397 70.83C167.07 71.0033 166.697 71.09 166.277 71.09C165.797 71.09 165.357 70.97 164.957 70.73C164.563 70.4833 164.25 70.1433 164.017 69.71C163.79 69.27 163.677 68.7733 163.677 68.22C163.677 67.6667 163.79 67.1767 164.017 66.75C164.25 66.3233 164.563 65.9933 164.957 65.76C165.357 65.52 165.797 65.4 166.277 65.4ZM168.187 68.24C168.187 67.86 168.107 67.53 167.947 67.25C167.793 66.97 167.59 66.7567 167.337 66.61C167.083 66.4633 166.81 66.39 166.517 66.39C166.223 66.39 165.95 66.4633 165.697 66.61C165.443 66.75 165.237 66.96 165.077 67.24C164.923 67.5133 164.847 67.84 164.847 68.22C164.847 68.6 164.923 68.9333 165.077 69.22C165.237 69.5067 165.443 69.7267 165.697 69.88C165.957 70.0267 166.23 70.1 166.517 70.1C166.81 70.1 167.083 70.0267 167.337 69.88C167.59 69.7333 167.793 69.52 167.947 69.24C168.107 68.9533 168.187 68.62 168.187 68.24ZM171.414 64.76C171.207 64.76 171.034 64.69 170.894 64.55C170.754 64.41 170.684 64.2367 170.684 64.03C170.684 63.8233 170.754 63.65 170.894 63.51C171.034 63.37 171.207 63.3 171.414 63.3C171.614 63.3 171.784 63.37 171.924 63.51C172.064 63.65 172.134 63.8233 172.134 64.03C172.134 64.2367 172.064 64.41 171.924 64.55C171.784 64.69 171.614 64.76 171.414 64.76ZM171.974 65.49V71H170.834V65.49H171.974ZM175.471 71.09C175.037 71.09 174.647 71.0133 174.301 70.86C173.961 70.7 173.691 70.4867 173.491 70.22C173.291 69.9467 173.184 69.6433 173.171 69.31H174.351C174.371 69.5433 174.481 69.74 174.681 69.9C174.887 70.0533 175.144 70.13 175.451 70.13C175.771 70.13 176.017 70.07 176.191 69.95C176.371 69.8233 176.461 69.6633 176.461 69.47C176.461 69.2633 176.361 69.11 176.161 69.01C175.967 68.91 175.657 68.8 175.231 68.68C174.817 68.5667 174.481 68.4567 174.221 68.35C173.961 68.2433 173.734 68.08 173.541 67.86C173.354 67.64 173.261 67.35 173.261 66.99C173.261 66.6967 173.347 66.43 173.521 66.19C173.694 65.9433 173.941 65.75 174.261 65.61C174.587 65.47 174.961 65.4 175.381 65.4C176.007 65.4 176.511 65.56 176.891 65.88C177.277 66.1933 177.484 66.6233 177.511 67.17H176.371C176.351 66.9233 176.251 66.7267 176.071 66.58C175.891 66.4333 175.647 66.36 175.341 66.36C175.041 66.36 174.811 66.4167 174.651 66.53C174.491 66.6433 174.411 66.7933 174.411 66.98C174.411 67.1267 174.464 67.25 174.571 67.35C174.677 67.45 174.807 67.53 174.961 67.59C175.114 67.6433 175.341 67.7133 175.641 67.8C176.041 67.9067 176.367 68.0167 176.621 68.13C176.881 68.2367 177.104 68.3967 177.291 68.61C177.477 68.8233 177.574 69.1067 177.581 69.46C177.581 69.7733 177.494 70.0533 177.321 70.3C177.147 70.5467 176.901 70.74 176.581 70.88C176.267 71.02 175.897 71.09 175.471 71.09ZM180.143 66.42V69.47C180.143 69.6767 180.189 69.8267 180.283 69.92C180.383 70.0067 180.549 70.05 180.783 70.05H181.483V71H180.583C180.069 71 179.676 70.88 179.403 70.64C179.129 70.4 178.993 70.01 178.993 69.47V66.42H178.343V65.49H178.993V64.12H180.143V65.49H181.483V66.42H180.143ZM183.673 66.29C183.84 66.01 184.06 65.7933 184.333 65.64C184.613 65.48 184.943 65.4 185.323 65.4V66.58H185.033C184.587 66.58 184.247 66.6933 184.013 66.92C183.787 67.1467 183.673 67.54 183.673 68.1V71H182.533V65.49H183.673V66.29ZM188.761 71.09C188.241 71.09 187.771 70.9733 187.351 70.74C186.931 70.5 186.601 70.1667 186.361 69.74C186.121 69.3067 186.001 68.8067 186.001 68.24C186.001 67.68 186.124 67.1833 186.371 66.75C186.618 66.3167 186.954 65.9833 187.381 65.75C187.808 65.5167 188.284 65.4 188.811 65.4C189.338 65.4 189.814 65.5167 190.241 65.75C190.668 65.9833 191.004 66.3167 191.251 66.75C191.498 67.1833 191.621 67.68 191.621 68.24C191.621 68.8 191.494 69.2967 191.241 69.73C190.988 70.1633 190.641 70.5 190.201 70.74C189.768 70.9733 189.288 71.09 188.761 71.09ZM188.761 70.1C189.054 70.1 189.328 70.03 189.581 69.89C189.841 69.75 190.051 69.54 190.211 69.26C190.371 68.98 190.451 68.64 190.451 68.24C190.451 67.84 190.374 67.5033 190.221 67.23C190.068 66.95 189.864 66.74 189.611 66.6C189.358 66.46 189.084 66.39 188.791 66.39C188.498 66.39 188.224 66.46 187.971 66.6C187.724 66.74 187.528 66.95 187.381 67.23C187.234 67.5033 187.161 67.84 187.161 68.24C187.161 68.8333 187.311 69.2933 187.611 69.62C187.918 69.94 188.301 70.1 188.761 70.1ZM194.966 68.22C194.966 67.6667 195.079 67.1767 195.306 66.75C195.539 66.3233 195.852 65.9933 196.246 65.76C196.646 65.52 197.089 65.4 197.576 65.4C197.936 65.4 198.289 65.48 198.636 65.64C198.989 65.7933 199.269 66 199.476 66.26V63.6H200.626V71H199.476V70.17C199.289 70.4367 199.029 70.6567 198.696 70.83C198.369 71.0033 197.992 71.09 197.566 71.09C197.086 71.09 196.646 70.97 196.246 70.73C195.852 70.4833 195.539 70.1433 195.306 69.71C195.079 69.27 194.966 68.7733 194.966 68.22ZM199.476 68.24C199.476 67.86 199.396 67.53 199.236 67.25C199.082 66.97 198.879 66.7567 198.626 66.61C198.372 66.4633 198.099 66.39 197.806 66.39C197.512 66.39 197.239 66.4633 196.986 66.61C196.732 66.75 196.526 66.96 196.366 67.24C196.212 67.5133 196.136 67.84 196.136 68.22C196.136 68.6 196.212 68.9333 196.366 69.22C196.526 69.5067 196.732 69.7267 196.986 69.88C197.246 70.0267 197.519 70.1 197.806 70.1C198.099 70.1 198.372 70.0267 198.626 69.88C198.879 69.7333 199.082 69.52 199.236 69.24C199.396 68.9533 199.476 68.62 199.476 68.24ZM207.173 68.11C207.173 68.3167 207.16 68.5033 207.133 68.67H202.923C202.956 69.11 203.12 69.4633 203.413 69.73C203.706 69.9967 204.066 70.13 204.493 70.13C205.106 70.13 205.54 69.8733 205.793 69.36H207.023C206.856 69.8667 206.553 70.2833 206.113 70.61C205.68 70.93 205.14 71.09 204.493 71.09C203.966 71.09 203.493 70.9733 203.073 70.74C202.66 70.5 202.333 70.1667 202.093 69.74C201.86 69.3067 201.743 68.8067 201.743 68.24C201.743 67.6733 201.856 67.1767 202.083 66.75C202.316 66.3167 202.64 65.9833 203.053 65.75C203.473 65.5167 203.953 65.4 204.493 65.4C205.013 65.4 205.476 65.5133 205.883 65.74C206.29 65.9667 206.606 66.2867 206.833 66.7C207.06 67.1067 207.173 67.5767 207.173 68.11ZM205.983 67.75C205.976 67.33 205.826 66.9933 205.533 66.74C205.24 66.4867 204.876 66.36 204.443 66.36C204.05 66.36 203.713 66.4867 203.433 66.74C203.153 66.9867 202.986 67.3233 202.933 67.75H205.983ZM84.7657 86.07C84.119 86.07 83.5224 85.92 82.9757 85.62C82.4357 85.3133 82.0057 84.89 81.6857 84.35C81.3724 83.8033 81.2157 83.19 81.2157 82.51C81.2157 81.83 81.3724 81.22 81.6857 80.68C82.0057 80.14 82.4357 79.72 82.9757 79.42C83.5224 79.1133 84.119 78.96 84.7657 78.96C85.419 78.96 86.0157 79.1133 86.5557 79.42C87.1024 79.72 87.5324 80.14 87.8457 80.68C88.159 81.22 88.3157 81.83 88.3157 82.51C88.3157 83.19 88.159 83.8033 87.8457 84.35C87.5324 84.89 87.1024 85.3133 86.5557 85.62C86.0157 85.92 85.419 86.07 84.7657 86.07ZM84.7657 85.08C85.2257 85.08 85.6357 84.9767 85.9957 84.77C86.3557 84.5567 86.6357 84.2567 86.8357 83.87C87.0424 83.4767 87.1457 83.0233 87.1457 82.51C87.1457 81.9967 87.0424 81.5467 86.8357 81.16C86.6357 80.7733 86.3557 80.4767 85.9957 80.27C85.6357 80.0633 85.2257 79.96 84.7657 79.96C84.3057 79.96 83.8957 80.0633 83.5357 80.27C83.1757 80.4767 82.8924 80.7733 82.6857 81.16C82.4857 81.5467 82.3857 81.9967 82.3857 82.51C82.3857 83.0233 82.4857 83.4767 82.6857 83.87C82.8924 84.2567 83.1757 84.5567 83.5357 84.77C83.8957 84.9767 84.3057 85.08 84.7657 85.08ZM89.0575 83.24C89.0575 82.6733 89.1708 82.1767 89.3975 81.75C89.6308 81.3167 89.9508 80.9833 90.3575 80.75C90.7642 80.5167 91.2308 80.4 91.7575 80.4C92.4242 80.4 92.9742 80.56 93.4075 80.88C93.8475 81.1933 94.1442 81.6433 94.2975 82.23H93.0675C92.9675 81.9567 92.8075 81.7433 92.5875 81.59C92.3675 81.4367 92.0908 81.36 91.7575 81.36C91.2908 81.36 90.9175 81.5267 90.6375 81.86C90.3642 82.1867 90.2275 82.6467 90.2275 83.24C90.2275 83.8333 90.3642 84.2967 90.6375 84.63C90.9175 84.9633 91.2908 85.13 91.7575 85.13C92.4175 85.13 92.8542 84.84 93.0675 84.26H94.2975C94.1375 84.82 93.8375 85.2667 93.3975 85.6C92.9575 85.9267 92.4108 86.09 91.7575 86.09C91.2308 86.09 90.7642 85.9733 90.3575 85.74C89.9508 85.5 89.6308 85.1667 89.3975 84.74C89.1708 84.3067 89.0575 83.8067 89.0575 83.24ZM97.8236 86.09C97.3036 86.09 96.8336 85.9733 96.4136 85.74C95.9936 85.5 95.6636 85.1667 95.4236 84.74C95.1836 84.3067 95.0636 83.8067 95.0636 83.24C95.0636 82.68 95.1869 82.1833 95.4336 81.75C95.6803 81.3167 96.0169 80.9833 96.4436 80.75C96.8703 80.5167 97.3469 80.4 97.8736 80.4C98.4003 80.4 98.8769 80.5167 99.3036 80.75C99.7303 80.9833 100.067 81.3167 100.314 81.75C100.56 82.1833 100.684 82.68 100.684 83.24C100.684 83.8 100.557 84.2967 100.304 84.73C100.05 85.1633 99.7036 85.5 99.2636 85.74C98.8303 85.9733 98.3503 86.09 97.8236 86.09ZM97.8236 85.1C98.1169 85.1 98.3903 85.03 98.6436 84.89C98.9036 84.75 99.1136 84.54 99.2736 84.26C99.4336 83.98 99.5136 83.64 99.5136 83.24C99.5136 82.84 99.4369 82.5033 99.2836 82.23C99.1303 81.95 98.9269 81.74 98.6736 81.6C98.4203 81.46 98.1469 81.39 97.8536 81.39C97.5603 81.39 97.2869 81.46 97.0336 81.6C96.7869 81.74 96.5903 81.95 96.4436 82.23C96.2969 82.5033 96.2236 82.84 96.2236 83.24C96.2236 83.8333 96.3736 84.2933 96.6736 84.62C96.9803 84.94 97.3636 85.1 97.8236 85.1ZM102.951 81.29C103.117 81.01 103.337 80.7933 103.611 80.64C103.891 80.48 104.221 80.4 104.601 80.4V81.58H104.311C103.864 81.58 103.524 81.6933 103.291 81.92C103.064 82.1467 102.951 82.54 102.951 83.1V86H101.811V80.49H102.951V81.29ZM106.788 81.29C106.955 81.01 107.175 80.7933 107.448 80.64C107.728 80.48 108.058 80.4 108.438 80.4V81.58H108.148C107.702 81.58 107.362 81.6933 107.128 81.92C106.902 82.1467 106.788 82.54 106.788 83.1V86H105.648V80.49H106.788V81.29ZM114.536 83.11C114.536 83.3167 114.523 83.5033 114.496 83.67H110.286C110.32 84.11 110.483 84.4633 110.776 84.73C111.07 84.9967 111.43 85.13 111.856 85.13C112.47 85.13 112.903 84.8733 113.156 84.36H114.386C114.22 84.8667 113.916 85.2833 113.476 85.61C113.043 85.93 112.503 86.09 111.856 86.09C111.33 86.09 110.856 85.9733 110.436 85.74C110.023 85.5 109.696 85.1667 109.456 84.74C109.223 84.3067 109.106 83.8067 109.106 83.24C109.106 82.6733 109.22 82.1767 109.446 81.75C109.68 81.3167 110.003 80.9833 110.416 80.75C110.836 80.5167 111.316 80.4 111.856 80.4C112.376 80.4 112.84 80.5133 113.246 80.74C113.653 80.9667 113.97 81.2867 114.196 81.7C114.423 82.1067 114.536 82.5767 114.536 83.11ZM113.346 82.75C113.34 82.33 113.19 81.9933 112.896 81.74C112.603 81.4867 112.24 81.36 111.806 81.36C111.413 81.36 111.076 81.4867 110.796 81.74C110.516 81.9867 110.35 82.3233 110.296 82.75H113.346ZM111.826 79.24L110.396 80.1V79.21L111.826 78.38L113.256 79.21V80.1L111.826 79.24ZM118.438 80.4C118.872 80.4 119.258 80.49 119.598 80.67C119.945 80.85 120.215 81.1167 120.408 81.47C120.602 81.8233 120.698 82.25 120.698 82.75V86H119.568V82.92C119.568 82.4267 119.445 82.05 119.198 81.79C118.952 81.5233 118.615 81.39 118.188 81.39C117.762 81.39 117.422 81.5233 117.168 81.79C116.922 82.05 116.798 82.4267 116.798 82.92V86H115.658V80.49H116.798V81.12C116.985 80.8933 117.222 80.7167 117.508 80.59C117.802 80.4633 118.112 80.4 118.438 80.4ZM121.772 83.24C121.772 82.6733 121.886 82.1767 122.112 81.75C122.346 81.3167 122.666 80.9833 123.072 80.75C123.479 80.5167 123.946 80.4 124.472 80.4C125.139 80.4 125.689 80.56 126.122 80.88C126.562 81.1933 126.859 81.6433 127.012 82.23H125.782C125.682 81.9567 125.522 81.7433 125.302 81.59C125.082 81.4367 124.806 81.36 124.472 81.36C124.006 81.36 123.632 81.5267 123.352 81.86C123.079 82.1867 122.942 82.6467 122.942 83.24C122.942 83.8333 123.079 84.2967 123.352 84.63C123.632 84.9633 124.006 85.13 124.472 85.13C125.132 85.13 125.569 84.84 125.782 84.26H127.012C126.852 84.82 126.552 85.2667 126.112 85.6C125.672 85.9267 125.126 86.09 124.472 86.09C123.946 86.09 123.479 85.9733 123.072 85.74C122.666 85.5 122.346 85.1667 122.112 84.74C121.886 84.3067 121.772 83.8067 121.772 83.24ZM128.728 79.76C128.522 79.76 128.348 79.69 128.208 79.55C128.068 79.41 127.998 79.2367 127.998 79.03C127.998 78.8233 128.068 78.65 128.208 78.51C128.348 78.37 128.522 78.3 128.728 78.3C128.928 78.3 129.098 78.37 129.238 78.51C129.378 78.65 129.448 78.8233 129.448 79.03C129.448 79.2367 129.378 79.41 129.238 79.55C129.098 79.69 128.928 79.76 128.728 79.76ZM129.288 80.49V86H128.148V80.49H129.288ZM130.405 83.22C130.405 82.6667 130.518 82.1767 130.745 81.75C130.978 81.3233 131.292 80.9933 131.685 80.76C132.085 80.52 132.525 80.4 133.005 80.4C133.438 80.4 133.815 80.4867 134.135 80.66C134.462 80.8267 134.722 81.0367 134.915 81.29V80.49H136.065V86H134.915V85.18C134.722 85.44 134.458 85.6567 134.125 85.83C133.792 86.0033 133.412 86.09 132.985 86.09C132.512 86.09 132.078 85.97 131.685 85.73C131.292 85.4833 130.978 85.1433 130.745 84.71C130.518 84.27 130.405 83.7733 130.405 83.22ZM134.915 83.24C134.915 82.86 134.835 82.53 134.675 82.25C134.522 81.97 134.318 81.7567 134.065 81.61C133.812 81.4633 133.538 81.39 133.245 81.39C132.952 81.39 132.678 81.4633 132.425 81.61C132.172 81.75 131.965 81.96 131.805 82.24C131.652 82.5133 131.575 82.84 131.575 83.22C131.575 83.6 131.652 83.9333 131.805 84.22C131.965 84.5067 132.172 84.7267 132.425 84.88C132.685 85.0267 132.958 85.1 133.245 85.1C133.538 85.1 133.812 85.0267 134.065 84.88C134.318 84.7333 134.522 84.52 134.675 84.24C134.835 83.9533 134.915 83.62 134.915 83.24ZM139.563 86.09C139.129 86.09 138.739 86.0133 138.393 85.86C138.053 85.7 137.783 85.4867 137.583 85.22C137.383 84.9467 137.276 84.6433 137.263 84.31H138.443C138.463 84.5433 138.573 84.74 138.773 84.9C138.979 85.0533 139.236 85.13 139.543 85.13C139.863 85.13 140.109 85.07 140.283 84.95C140.463 84.8233 140.553 84.6633 140.553 84.47C140.553 84.2633 140.453 84.11 140.253 84.01C140.059 83.91 139.749 83.8 139.323 83.68C138.909 83.5667 138.573 83.4567 138.313 83.35C138.053 83.2433 137.826 83.08 137.633 82.86C137.446 82.64 137.353 82.35 137.353 81.99C137.353 81.6967 137.439 81.43 137.613 81.19C137.786 80.9433 138.033 80.75 138.353 80.61C138.679 80.47 139.053 80.4 139.473 80.4C140.099 80.4 140.603 80.56 140.983 80.88C141.369 81.1933 141.576 81.6233 141.603 82.17H140.463C140.443 81.9233 140.343 81.7267 140.163 81.58C139.983 81.4333 139.739 81.36 139.433 81.36C139.133 81.36 138.903 81.4167 138.743 81.53C138.583 81.6433 138.503 81.7933 138.503 81.98C138.503 82.1267 138.556 82.25 138.663 82.35C138.769 82.45 138.899 82.53 139.053 82.59C139.206 82.6433 139.433 82.7133 139.733 82.8C140.133 82.9067 140.459 83.0167 140.713 83.13C140.973 83.2367 141.196 83.3967 141.383 83.61C141.569 83.8233 141.666 84.1067 141.673 84.46C141.673 84.7733 141.586 85.0533 141.413 85.3C141.239 85.5467 140.993 85.74 140.673 85.88C140.359 86.02 139.989 86.09 139.563 86.09Z" fill="#061C43"/>
<path d="M16.1963 0.591797C22.0959 12.3822 13.7307 18.366 15.751 25.8477C17.8414 33.5889 24.6458 34.2255 29.0996 32.3721C33.0111 30.7442 34.7469 25.8408 33.46 20.8291C36.8186 25.4696 39.2773 31.1715 40 40.3877C39.9997 50.2846 31.0691 58.3076 20.0527 58.3076C9.03629 58.3076 0.105759 50.2846 0.105469 40.3877C0.105469 24.1899 21.827 10.8612 15.8164 0C15.9423 0.19976 16.0699 0.396396 16.1963 0.591797Z" fill="#061C43"/>
<path d="M66.2938 52.7944C64.1779 52.7944 62.2819 52.4572 60.6057 51.7828C58.9295 51.1084 57.583 50.1103 56.5663 48.7885C55.5771 47.4667 55.055 45.8751 55 44.0138H62.5017C62.6116 45.0658 62.9826 45.8751 63.6146 46.4416C64.2466 46.9811 65.071 47.2509 66.0877 47.2509C67.1319 47.2509 67.9563 47.0216 68.5608 46.563C69.1654 46.0774 69.4676 45.4165 69.4676 44.5803C69.4676 43.8789 69.2203 43.2989 68.7257 42.8403C68.2586 42.3817 67.6678 42.0041 66.9533 41.7073C66.2663 41.4106 65.2771 41.0734 63.9856 40.6957C62.117 40.1292 60.5919 39.5628 59.4104 38.9963C58.2288 38.4298 57.2121 37.5935 56.3602 36.4875C55.5084 35.3815 55.0824 33.9383 55.0824 32.1579C55.0824 29.5142 56.0579 27.4506 58.0089 25.9669C59.9599 24.4563 62.5017 23.7009 65.6343 23.7009C68.8219 23.7009 71.3911 24.4563 73.3421 25.9669C75.2931 27.4506 76.3373 29.5277 76.4747 32.1983H68.8493C68.7944 31.2812 68.4509 30.5663 67.8189 30.0538C67.1869 29.5142 66.3762 29.2445 65.387 29.2445C64.5352 29.2445 63.8482 29.4738 63.3261 29.9324C62.804 30.364 62.5429 30.9979 62.5429 31.8342C62.5429 32.7513 62.9826 33.4662 63.8619 33.9787C64.7413 34.4913 66.1152 35.0443 67.9838 35.6378C69.8523 36.2582 71.3637 36.8517 72.5178 37.4182C73.6994 37.9847 74.7161 38.8074 75.5679 39.8865C76.4198 40.9655 76.8457 42.3548 76.8457 44.0542C76.8457 45.6728 76.4198 47.143 75.5679 48.4648C74.7436 49.7866 73.5345 50.8387 71.9407 51.621C70.3469 52.4033 68.4646 52.7944 66.2938 52.7944ZM84.4809 52.8349C83.2443 52.8349 82.2276 52.4842 81.4307 51.7828C80.6613 51.0545 80.2766 50.1643 80.2766 49.1122C80.2766 48.0332 80.6613 47.1295 81.4307 46.4011C82.2276 45.6728 83.2443 45.3086 84.4809 45.3086C85.6899 45.3086 86.6792 45.6728 87.4486 46.4011C88.2455 47.1295 88.6439 48.0332 88.6439 49.1122C88.6439 50.1643 88.2455 51.0545 87.4486 51.7828C86.6792 52.4842 85.6899 52.8349 84.4809 52.8349ZM106.501 52.7944C103.78 52.7944 101.28 52.174 98.999 50.9331C96.7457 49.6922 94.9459 47.9657 93.5994 45.7537C92.2804 43.5147 91.6209 41.006 91.6209 38.2274C91.6209 35.4489 92.2804 32.9537 93.5994 30.7416C94.9459 28.5296 96.7457 26.8032 98.999 25.5623C101.28 24.3214 103.78 23.7009 106.501 23.7009C109.221 23.7009 111.708 24.3214 113.961 25.5623C116.242 26.8032 118.028 28.5296 119.32 30.7416C120.639 32.9537 121.298 35.4489 121.298 38.2274C121.298 41.006 120.639 43.5147 119.32 45.7537C118.001 47.9657 116.214 49.6922 113.961 50.9331C111.708 52.174 109.221 52.7944 106.501 52.7944ZM106.501 46.4821C108.809 46.4821 110.65 45.7267 112.024 44.2161C113.425 42.7054 114.126 40.7092 114.126 38.2274C114.126 35.7187 113.425 33.7225 112.024 32.2388C110.65 30.7281 108.809 29.9728 106.501 29.9728C104.165 29.9728 102.296 30.7147 100.895 32.1983C99.5211 33.682 98.8341 35.6917 98.8341 38.2274C98.8341 40.7362 99.5211 42.7459 100.895 44.2566C102.296 45.7402 104.165 46.4821 106.501 46.4821ZM128.517 52.8349C127.28 52.8349 126.264 52.4842 125.467 51.7828C124.697 51.0545 124.313 50.1643 124.313 49.1122C124.313 48.0332 124.697 47.1295 125.467 46.4011C126.264 45.6728 127.28 45.3086 128.517 45.3086C129.726 45.3086 130.715 45.6728 131.484 46.4011C132.281 47.1295 132.68 48.0332 132.68 49.1122C132.68 50.1643 132.281 51.0545 131.484 51.7828C130.715 52.4842 129.726 52.8349 128.517 52.8349ZM151.608 52.5112L145.59 41.7883H143.9V52.5112H136.852V24.1056H148.682C150.963 24.1056 152.9 24.4967 154.494 25.279C156.115 26.0613 157.324 27.1404 158.121 28.5161C158.918 29.8649 159.316 31.3756 159.316 33.0481C159.316 34.9364 158.767 36.6224 157.667 38.1061C156.596 39.5897 155.002 40.6418 152.886 41.2622L159.563 52.5112H151.608ZM143.9 36.8921H148.27C149.561 36.8921 150.523 36.5819 151.155 35.9615C151.814 35.341 152.144 34.4643 152.144 33.3313C152.144 32.2523 151.814 31.4025 151.155 30.7821C150.523 30.1617 149.561 29.8514 148.27 29.8514H143.9V36.8921ZM167.038 52.8349C165.802 52.8349 164.785 52.4842 163.988 51.7828C163.219 51.0545 162.834 50.1643 162.834 49.1122C162.834 48.0332 163.219 47.1295 163.988 46.4011C164.785 45.6728 165.802 45.3086 167.038 45.3086C168.247 45.3086 169.237 45.6728 170.006 46.4011C170.803 47.1295 171.201 48.0332 171.201 49.1122C171.201 50.1643 170.803 51.0545 170.006 51.7828C169.237 52.4842 168.247 52.8349 167.038 52.8349ZM189.058 52.7944C186.338 52.7944 183.837 52.174 181.556 50.9331C179.303 49.6922 177.503 47.9657 176.157 45.7537C174.838 43.5147 174.178 41.006 174.178 38.2274C174.178 35.4489 174.838 32.9537 176.157 30.7416C177.503 28.5296 179.303 26.8032 181.556 25.5623C183.837 24.3214 186.338 23.7009 189.058 23.7009C191.778 23.7009 194.265 24.3214 196.519 25.5623C198.799 26.8032 200.585 28.5296 201.877 30.7416C203.196 32.9537 203.855 35.4489 203.855 38.2274C203.855 41.006 203.196 43.5147 201.877 45.7537C200.558 47.9657 198.772 49.6922 196.519 50.9331C194.265 52.174 191.778 52.7944 189.058 52.7944ZM189.058 46.4821C191.366 46.4821 193.207 45.7267 194.581 44.2161C195.983 42.7054 196.683 40.7092 196.683 38.2274C196.683 35.7187 195.983 33.7225 194.581 32.2388C193.207 30.7281 191.366 29.9728 189.058 29.9728C186.722 29.9728 184.854 30.7147 183.452 32.1983C182.078 33.682 181.391 35.6917 181.391 38.2274C181.391 40.7362 182.078 42.7459 183.452 44.2566C184.854 45.7402 186.722 46.4821 189.058 46.4821ZM211.074 52.8349C209.837 52.8349 208.82 52.4842 208.024 51.7828C207.254 51.0545 206.869 50.1643 206.869 49.1122C206.869 48.0332 207.254 47.1295 208.024 46.4011C208.82 45.6728 209.837 45.3086 211.074 45.3086C212.283 45.3086 213.272 45.6728 214.041 46.4011C214.838 47.1295 215.237 48.0332 215.237 49.1122C215.237 50.1643 214.838 51.0545 214.041 51.7828C213.272 52.4842 212.283 52.8349 211.074 52.8349Z" fill="#061C43"/>
</svg>
